<?xml version="1.0" encoding="utf-8"?>
<svg version="1.1" id="Layer_2" xmlns="http://www.w3.org/2000/svg" xmlns:xlink="http://www.w3.org/1999/xlink" x="0px" y="0px"
	 viewBox="0 0 500 80" style="enable-background:new 0 0 500 80;" xml:space="preserve">
<style type="text/css">
	path{fill:#2C98F0;}
</style>
        <path
            d="M129.3,18.3c-6,0-10.8,2-14.3,6c-3.5,4-5.2,9.5-5.2,16.5c0,7.2,1.7,12.8,5.1,16.7c3.4,3.9,8.2,5.9,14.4,5.9
    c3.8,0,8.2-0.7,13.1-2.1V67c-3.8,1.4-8.5,2.1-14.1,2.1c-8.1,0-14.3-2.5-18.7-7.4c-4.4-4.9-6.6-11.9-6.6-20.9
    c0-5.7,1.1-10.6,3.2-14.9c2.1-4.3,5.2-7.5,9.2-9.9c4-2.3,8.7-3.5,14.1-3.5c5.8,0,10.8,1.1,15.1,3.2l-2.7,5.5
    C137.6,19.3,133.5,18.3,129.3,18.3z"
        />
        <path d="M159.6,68.4h-6.2V9.9h6.2V68.4z" />
        <path
            d="M190.3,69.1c-6.1,0-10.9-1.9-14.4-5.6c-3.5-3.7-5.3-8.9-5.3-15.5c0-6.6,1.6-11.9,4.9-15.8
    c3.3-3.9,7.7-5.9,13.2-5.9c5.2,0,9.2,1.7,12.3,5.1s4.5,7.9,4.5,13.4v3.9H177c0.1,4.8,1.3,8.5,3.7,11c2.3,2.5,5.6,3.8,9.8,3.8
    c4.4,0,8.8-0.9,13.2-2.8v5.6c-2.2,1-4.3,1.6-6.3,2C195.4,68.9,193.1,69.1,190.3,69.1z M188.6,31.6c-3.3,0-5.9,1.1-7.9,3.2
    c-2,2.2-3.1,5.1-3.5,8.9h21.5c0-3.9-0.9-6.9-2.6-9C194.3,32.7,191.8,31.6,188.6,31.6z"
        />
        <path
            d="M241.4,68.4l-1.2-5.9h-0.3c-2.1,2.6-4.1,4.3-6.1,5.2c-2,0.9-4.6,1.4-7.7,1.4c-4.1,0-7.3-1.1-9.6-3.2
    s-3.5-5.1-3.5-9c0-8.3,6.7-12.7,20-13.1l7-0.2v-2.6c0-3.2-0.7-5.6-2.1-7.2c-1.4-1.5-3.6-2.3-6.7-2.3c-3.4,0-7.3,1.1-11.7,3.2
    l-1.9-4.8c2-1.1,4.3-2,6.7-2.6c2.4-0.6,4.8-0.9,7.3-0.9c4.9,0,8.6,1.1,10.9,3.3c2.4,2.2,3.6,5.7,3.6,10.5v28.1H241.4z M227.3,64
    c3.9,0,6.9-1.1,9.2-3.2c2.2-2.1,3.3-5.1,3.3-8.9v-3.7l-6.2,0.3c-5,0.2-8.5,0.9-10.7,2.3c-2.2,1.4-3.3,3.5-3.3,6.4
    c0,2.3,0.7,4,2,5.2C222.9,63.4,224.9,64,227.3,64z"
        />
        <path
            d="M277.7,26.4c1.8,0,3.5,0.2,4.9,0.5l-0.9,5.8c-1.7-0.4-3.2-0.6-4.5-0.6c-3.3,0-6.2,1.4-8.6,4.1
    c-2.4,2.7-3.6,6.1-3.6,10.1v22.1h-6.2V27.1h5.2l0.7,7.6h0.3c1.5-2.7,3.4-4.7,5.5-6.2C272.7,27.1,275.1,26.4,277.7,26.4z"
        />
        <path
            d="M314.8,18.3c-6,0-10.8,2-14.3,6c-3.5,4-5.2,9.5-5.2,16.5c0,7.2,1.7,12.8,5.1,16.7c3.4,3.9,8.2,5.9,14.4,5.9
    c3.8,0,8.2-0.7,13.1-2.1V67c-3.8,1.4-8.5,2.1-14.1,2.1c-8.1,0-14.3-2.5-18.7-7.4c-4.4-4.9-6.6-11.9-6.6-20.9
    c0-5.7,1.1-10.6,3.2-14.9c2.1-4.3,5.2-7.5,9.2-9.9c4-2.3,8.7-3.5,14.1-3.5c5.8,0,10.8,1.1,15.1,3.2l-2.7,5.5
    C323.1,19.3,319,18.3,314.8,18.3z"
        />
        <path
            d="M364.2,68.4l-1.2-5.9h-0.3c-2.1,2.6-4.1,4.3-6.1,5.2c-2,0.9-4.6,1.4-7.7,1.4c-4.1,0-7.3-1.1-9.6-3.2
    s-3.5-5.1-3.5-9c0-8.3,6.7-12.7,20-13.1l7-0.2v-2.6c0-3.2-0.7-5.6-2.1-7.2c-1.4-1.5-3.6-2.3-6.7-2.3c-3.4,0-7.3,1.1-11.7,3.2
    l-1.9-4.8c2-1.1,4.3-2,6.7-2.6c2.4-0.6,4.8-0.9,7.3-0.9c4.9,0,8.6,1.1,10.9,3.3c2.4,2.2,3.6,5.7,3.6,10.5v28.1H364.2z M350.1,64
    c3.9,0,6.9-1.1,9.2-3.2c2.2-2.1,3.3-5.1,3.3-8.9v-3.7l-6.2,0.3c-5,0.2-8.5,0.9-10.7,2.3c-2.2,1.4-3.3,3.5-3.3,6.4
    c0,2.3,0.7,4,2,5.2C345.8,63.4,347.7,64,350.1,64z"
        />
        <path d="M388,68.4h-6.2V9.9h6.2V68.4z" />
        <path
            d="M417.7,69.1c-6,0-10.6-1.8-13.9-5.5c-3.3-3.7-4.9-8.9-4.9-15.6c0-6.9,1.7-12.2,5-16c3.3-3.8,8.1-5.6,14.2-5.6
    c2,0,4,0.2,5.9,0.6c2,0.4,3.5,0.9,4.7,1.5l-1.9,5.3c-1.4-0.6-2.9-1-4.5-1.4c-1.6-0.4-3.1-0.5-4.3-0.5c-8.4,0-12.6,5.3-12.6,16
    c0,5.1,1,8.9,3.1,11.7s5.1,4.1,9.1,4.1c3.4,0,7-0.7,10.6-2.2V67C425.3,68.4,421.9,69.1,417.7,69.1z"
        />
        <path
            d="M464.4,57.1c0,3.8-1.4,6.8-4.3,8.9c-2.9,2.1-6.9,3.1-12,3.1c-5.5,0-9.7-0.9-12.8-2.6v-5.8c2,1,4.1,1.8,6.4,2.4
    c2.3,0.6,4.5,0.9,6.6,0.9c3.3,0,5.8-0.5,7.5-1.6c1.8-1,2.6-2.6,2.6-4.8c0-1.6-0.7-3-2.1-4.1c-1.4-1.1-4.1-2.5-8.1-4
    c-3.8-1.4-6.6-2.7-8.2-3.7c-1.6-1.1-2.8-2.3-3.6-3.6c-0.8-1.4-1.2-3-1.2-4.9c0-3.4,1.4-6,4.1-8c2.7-1.9,6.5-2.9,11.2-2.9
    c4.4,0,8.8,0.9,13,2.7l-2.2,5.1c-4.1-1.7-7.9-2.6-11.2-2.6c-3,0-5.2,0.5-6.7,1.4c-1.5,0.9-2.3,2.2-2.3,3.8c0,1.1,0.3,2,0.8,2.8
    c0.6,0.8,1.5,1.5,2.7,2.2c1.3,0.7,3.7,1.7,7.2,3c4.9,1.8,8.2,3.6,9.9,5.4S464.4,54.4,464.4,57.1z"
        />
        <path
            d="M40.3,4.3C60,4.3,76,20.4,76,40S60,75.7,40.3,75.7S4.7,59.7,4.7,40S20.7,4.3,40.3,4.3 M40.3,0
        c-22.1,0-40,17.9-40,40s17.9,40,40,40s40-17.9,40-40S62.4,0,40.3,0L40.3,0z"
        />
        <rect x="39.9" y="32.2" width="15.2" height="3.3" />
        <path
            d="M33.5,35.5c2.9,2.8,4.4,6.1,4.4,10.1c0,3.6-1.2,6.8-3.7,9.4c-2.5,2.7-5.3,4-8.3,4c-3.1,0-5.9-1.3-8.5-4
    s-3.8-5.8-3.8-9.4s1.2-6.8,3.7-9.4c2.5-2.7,5.3-4,8.5-4h14.5v3.3C40.3,35.5,33.5,35.5,33.5,35.5z M19.8,38.5
    c-1.8,2-2.7,4.4-2.7,7.1c0,2.8,0.9,5.1,2.7,7.1c1.8,1.9,3.7,3,6,3s4.3-1,6-3s2.7-4.4,2.7-7.1c0-2.8-0.9-5.1-2.7-7.1s-3.7-3-6-3
    C23.6,35.5,21.5,36.5,19.8,38.5z"
        />
        <path
            d="M55.1,19.3h7v3.4h-6.9c-2.6,0-4,0.6-4,1.9c0,0.9,0.4,1.6,1.3,2.4l9.9,8.3c3.1,2.6,4.6,6,4.6,10.2
    c0,3.5-1.2,6.7-3.7,9.3c-2.5,2.7-5.3,4-8.3,4c-3.1,0-5.9-1.3-8.4-4s-3.8-5.8-3.8-9.3c0-3.3,1.1-6.1,3.2-8.8
    c2.1-2.6,4.6-4.1,7.4-4.5l-4-3.4c-1.5-1.2-2.1-2.7-2.1-4.2c0-1.6,0.6-2.9,1.8-4C50.4,19.8,52.3,19.3,55.1,19.3z M49,38.5
    c-1.8,1.9-2.6,4.3-2.6,7.1s0.9,5.1,2.6,7.1c1.8,1.9,3.7,3,6,3s4.3-1,6-3c1.8-1.9,2.6-4.3,2.6-7.1s-0.9-5.1-2.6-7.1
    c-1.7-2-3.7-3-6-3C52.6,35.5,50.6,36.5,49,38.5z"
        />
</svg>
